<svg width="648" height="69" viewBox="0 0 648 69" fill="none" xmlns="http://www.w3.org/2000/svg">
<path d="M34.304 68.384C22.336 68.384 13.472 64.992 7.712 58.208C5.664 55.776 4 52.544 2.72 48.512C1.44 44.48 0.8 39.584 0.8 33.824C0.8 28.064 1.728 22.912 3.584 18.368C5.504 13.76 8.096 10.208 11.36 7.712C17.696 3.04 25.344 0.703997 34.304 0.703997C36.864 0.703997 39.36 0.927998 41.792 1.376C44.224 1.76 46.048 2.176 47.264 2.62399L48.992 3.296L48.704 4.256C44.352 2.528 39.552 1.664 34.304 1.664C27.52 1.664 21.856 3.872 17.312 8.288C13.856 11.552 11.424 16.352 10.016 22.688C9.184 26.272 8.768 30.656 8.768 35.84C8.768 41.024 9.504 45.824 10.976 50.24C12.448 54.592 14.112 57.824 15.968 59.936C17.888 62.048 20.192 63.744 22.88 65.024C25.568 66.24 27.712 66.944 29.312 67.136C30.912 67.328 32.832 67.424 35.072 67.424C37.376 67.424 39.968 67.2 42.848 66.752C45.728 66.304 47.904 65.888 49.376 65.504L51.584 64.832L51.872 65.792C47.008 67.52 41.152 68.384 34.304 68.384ZM75.41 56.96C75.41 62.016 76.754 65.248 79.442 66.656C80.722 67.296 82.354 67.616 84.338 67.616C88.37 67.616 91.954 66.08 95.09 63.008C98.29 59.936 100.018 57.088 100.274 54.464V20H106.994V61.184C106.994 63.04 107.346 64.48 108.05 65.504C108.818 66.464 109.586 66.976 110.354 67.04L111.41 67.232H114.386V68H108.53C105.906 68 103.89 67.424 102.482 66.272C101.138 65.12 100.434 63.968 100.37 62.816L100.274 61.184V57.056C99.122 59.808 97.074 62.4 94.13 64.832C91.186 67.2 87.954 68.384 84.434 68.384C80.978 68.384 78.13 68.064 75.89 67.424C73.714 66.72 72.146 65.76 71.186 64.544C69.522 62.56 68.69 60 68.69 56.864V20H75.41V56.96ZM156.853 23.36C155.829 22.528 154.165 21.824 151.861 21.248C149.621 20.672 147.925 20.384 146.773 20.384C145.621 20.384 144.949 20.384 144.757 20.384C141.301 20.448 138.805 21.344 137.269 23.072C135.733 24.736 134.965 26.624 134.965 28.736C134.965 30.848 135.637 32.64 136.981 34.112C138.325 35.52 139.989 36.64 141.973 37.472C144.021 38.24 146.197 39.136 148.501 40.16C150.869 41.184 153.045 42.24 155.029 43.328C157.077 44.352 158.773 45.888 160.117 47.936C161.461 49.92 162.133 52.416 162.133 55.424C162.133 58.432 161.077 60.992 158.965 63.104C156.853 65.216 154.485 66.624 151.861 67.328C149.301 68.032 146.517 68.384 143.509 68.384C136.981 68.384 132.085 66.944 128.821 64.064L129.397 63.488C130.677 64.704 132.565 65.696 135.061 66.464C137.621 67.232 140.085 67.616 142.453 67.616C146.229 67.616 149.333 66.592 151.765 64.544C154.261 62.432 155.509 59.84 155.509 56.768C155.509 53.632 154.581 51.136 152.725 49.28C150.869 47.36 148.597 45.888 145.909 44.864C143.285 43.776 140.629 42.72 137.941 41.696C135.253 40.608 132.981 39.136 131.125 37.28C129.269 35.36 128.341 33.152 128.341 30.656C128.341 28.16 128.917 26.144 130.069 24.608C131.221 23.008 132.757 21.888 134.677 21.248C137.941 20.16 141.205 19.616 144.469 19.616C149.973 19.616 154.261 20.64 157.333 22.688L156.853 23.36ZM178.441 20.768V20H180.457V10.4H187.177V20H201.865V20.768H187.177V55.712C187.177 59.872 187.625 62.88 188.521 64.736C189.481 66.592 191.433 67.52 194.377 67.52C197.385 67.52 200.425 66.912 203.497 65.696L203.785 66.464C200.585 67.68 196.905 68.288 192.745 68.288C188.649 68.288 185.577 67.456 183.529 65.792C181.481 64.064 180.457 60.672 180.457 55.616V20.768H178.441ZM238.554 68.384C231.834 68.384 226.362 66.464 222.138 62.624C217.914 58.784 215.802 52.864 215.802 44.864C215.802 36.864 217.978 30.656 222.33 26.24C226.746 21.824 232.314 19.616 239.034 19.616C245.818 19.616 251.322 21.536 255.546 25.376C259.77 29.216 261.882 35.136 261.882 43.136C261.882 51.136 259.674 57.344 255.258 61.76C250.906 66.176 245.338 68.384 238.554 68.384ZM239.226 20.384C234.362 20.384 230.33 22.56 227.13 26.912C223.93 31.2 222.33 37.216 222.33 44.96C222.33 52.64 223.802 58.336 226.746 62.048C229.69 65.76 233.594 67.616 238.458 67.616C243.322 67.616 247.354 65.472 250.554 61.184C253.754 56.832 255.354 50.816 255.354 43.136C255.354 35.392 253.882 29.664 250.938 25.952C247.994 22.24 244.09 20.384 239.226 20.384ZM335.134 31.04C335.134 27.136 334.622 24.384 333.598 22.784C332.574 21.184 330.622 20.384 327.742 20.384C323.902 20.384 320.478 21.984 317.47 25.184C314.526 28.384 313.054 31.264 313.054 33.824V68H306.334V31.04C306.334 27.136 305.822 24.384 304.798 22.784C303.774 21.184 301.598 20.384 298.27 20.384C294.942 20.384 291.774 21.92 288.766 24.992C285.822 28.064 284.222 30.912 283.966 33.536V68H277.246V20H283.966V30.848C284.99 28.096 286.878 25.536 289.63 23.168C292.382 20.8 295.454 19.616 298.846 19.616C302.238 19.616 304.926 19.936 306.91 20.576C308.958 21.152 310.398 22.08 311.23 23.36C312.062 24.64 312.574 25.76 312.766 26.72C312.958 27.68 313.054 29.024 313.054 30.752C314.078 28 315.934 25.472 318.622 23.168C321.31 20.8 324.19 19.616 327.262 19.616C330.334 19.616 332.798 19.872 334.654 20.384C336.51 20.896 337.886 21.472 338.782 22.112C339.742 22.752 340.446 23.68 340.894 24.896C341.406 26.112 341.694 27.104 341.758 27.872C341.822 28.64 341.854 29.728 341.854 31.136V61.184C341.854 63.04 342.206 64.48 342.91 65.504C343.678 66.464 344.446 66.976 345.214 67.04L346.27 67.232H349.246V68H343.39C340.766 68 338.75 67.424 337.342 66.272C335.998 65.12 335.294 63.968 335.23 62.816L335.134 61.184V31.04ZM441.275 68H404.795V0.799995H412.763V67.04H441.275V68ZM466.494 68C463.87 68 461.854 67.424 460.446 66.272C459.102 65.12 458.398 63.968 458.334 62.816L458.238 61.184V20H464.958V61.184C464.958 63.04 465.31 64.48 466.014 65.504C466.782 66.464 467.518 66.976 468.222 67.04L469.374 67.232H472.35V68H466.494ZM458.814 9.248C458.046 8.48 457.662 7.52 457.662 6.368C457.662 5.216 458.046 4.256 458.814 3.488C459.582 2.65599 460.542 2.23999 461.694 2.23999C462.846 2.23999 463.806 2.65599 464.574 3.488C465.406 4.256 465.822 5.216 465.822 6.368C465.822 7.52 465.406 8.48 464.574 9.248C463.806 10.016 462.846 10.4 461.694 10.4C460.542 10.4 459.582 10.016 458.814 9.248ZM527.611 68C524.987 68 522.971 67.424 521.563 66.272C520.219 65.12 519.515 63.968 519.451 62.816L519.355 61.184V31.04C519.355 25.984 518.043 22.752 515.419 21.344C514.075 20.704 512.411 20.384 510.427 20.384C506.331 20.384 502.651 22.016 499.387 25.28C496.123 28.48 494.491 31.36 494.491 33.92V68H487.771V20H494.491V30.944C495.579 28.192 497.595 25.632 500.539 23.264C503.483 20.832 506.715 19.616 510.235 19.616C513.755 19.616 516.603 19.968 518.779 20.672C521.019 21.312 522.651 22.24 523.675 23.456C525.275 25.44 526.075 28 526.075 31.136V61.184C526.075 63.04 526.427 64.48 527.131 65.504C527.899 66.464 528.667 66.976 529.435 67.04L530.491 67.232H533.467V68H527.611ZM553.493 44.576C553.493 52.512 554.869 58.336 557.621 62.048C560.437 65.76 564.117 67.616 568.661 67.616C575.061 67.616 580.757 66.656 585.749 64.736L586.037 65.408C580.917 67.392 575.125 68.384 568.661 68.384C562.261 68.384 557.045 66.464 553.013 62.624C548.981 58.784 546.965 52.864 546.965 44.864C546.965 36.864 549.077 30.656 553.301 26.24C557.525 21.824 562.901 19.616 569.429 19.616C574.677 19.616 579.093 21.184 582.677 24.32C586.261 27.456 588.053 32.096 588.053 38.24C588.053 38.56 588.053 38.88 588.053 39.2H553.781C553.589 40.928 553.493 42.72 553.493 44.576ZM581.525 38.432C581.461 32.288 580.277 27.744 577.973 24.8C575.669 21.856 572.693 20.384 569.045 20.384C565.397 20.384 562.133 21.984 559.253 25.184C556.437 28.384 554.645 32.8 553.877 38.432H581.525ZM641.405 68C638.781 68 636.765 67.424 635.357 66.272C634.013 65.12 633.309 63.968 633.245 62.816L633.149 61.184V31.04C633.149 25.984 631.837 22.752 629.213 21.344C627.869 20.704 626.205 20.384 624.221 20.384C620.125 20.384 616.445 22.016 613.181 25.28C609.917 28.48 608.285 31.36 608.285 33.92V68H601.565V20H608.285V30.944C609.373 28.192 611.389 25.632 614.333 23.264C617.277 20.832 620.509 19.616 624.029 19.616C627.549 19.616 630.397 19.968 632.573 20.672C634.813 21.312 636.445 22.24 637.469 23.456C639.069 25.44 639.869 28 639.869 31.136V61.184C639.869 63.04 640.221 64.48 640.925 65.504C641.693 66.464 642.461 66.976 643.229 67.04L644.285 67.232H647.261V68H641.405Z" fill="black"/>
</svg>
