<svg width="350" height="144" viewBox="0 0 350 144" fill="none" xmlns="http://www.w3.org/2000/svg">
<path d="M34.304 68.384C22.336 68.384 13.472 64.992 7.712 58.208C5.664 55.776 4 52.544 2.72 48.512C1.44 44.48 0.8 39.584 0.8 33.824C0.8 28.064 1.728 22.912 3.584 18.368C5.504 13.76 8.096 10.208 11.36 7.712C17.696 3.04 25.344 0.703997 34.304 0.703997C36.864 0.703997 39.36 0.927998 41.792 1.376C44.224 1.76 46.048 2.176 47.264 2.62399L48.992 3.296L48.704 4.256C44.352 2.528 39.552 1.664 34.304 1.664C27.52 1.664 21.856 3.872 17.312 8.288C13.856 11.552 11.424 16.352 10.016 22.688C9.184 26.272 8.768 30.656 8.768 35.84C8.768 41.024 9.504 45.824 10.976 50.24C12.448 54.592 14.112 57.824 15.968 59.936C17.888 62.048 20.192 63.744 22.88 65.024C25.568 66.24 27.712 66.944 29.312 67.136C30.912 67.328 32.832 67.424 35.072 67.424C37.376 67.424 39.968 67.2 42.848 66.752C45.728 66.304 47.904 65.888 49.376 65.504L51.584 64.832L51.872 65.792C47.008 67.52 41.152 68.384 34.304 68.384ZM75.41 56.96C75.41 62.016 76.754 65.248 79.442 66.656C80.722 67.296 82.354 67.616 84.338 67.616C88.37 67.616 91.954 66.08 95.09 63.008C98.29 59.936 100.018 57.088 100.274 54.464V20H106.994V61.184C106.994 63.04 107.346 64.48 108.05 65.504C108.818 66.464 109.586 66.976 110.354 67.04L111.41 67.232H114.386V68H108.53C105.906 68 103.89 67.424 102.482 66.272C101.138 65.12 100.434 63.968 100.37 62.816L100.274 61.184V57.056C99.122 59.808 97.074 62.4 94.13 64.832C91.186 67.2 87.954 68.384 84.434 68.384C80.978 68.384 78.13 68.064 75.89 67.424C73.714 66.72 72.146 65.76 71.186 64.544C69.522 62.56 68.69 60 68.69 56.864V20H75.41V56.96ZM156.853 23.36C155.829 22.528 154.165 21.824 151.861 21.248C149.621 20.672 147.925 20.384 146.773 20.384C145.621 20.384 144.949 20.384 144.757 20.384C141.301 20.448 138.805 21.344 137.269 23.072C135.733 24.736 134.965 26.624 134.965 28.736C134.965 30.848 135.637 32.64 136.981 34.112C138.325 35.52 139.989 36.64 141.973 37.472C144.021 38.24 146.197 39.136 148.501 40.16C150.869 41.184 153.045 42.24 155.029 43.328C157.077 44.352 158.773 45.888 160.117 47.936C161.461 49.92 162.133 52.416 162.133 55.424C162.133 58.432 161.077 60.992 158.965 63.104C156.853 65.216 154.485 66.624 151.861 67.328C149.301 68.032 146.517 68.384 143.509 68.384C136.981 68.384 132.085 66.944 128.821 64.064L129.397 63.488C130.677 64.704 132.565 65.696 135.061 66.464C137.621 67.232 140.085 67.616 142.453 67.616C146.229 67.616 149.333 66.592 151.765 64.544C154.261 62.432 155.509 59.84 155.509 56.768C155.509 53.632 154.581 51.136 152.725 49.28C150.869 47.36 148.597 45.888 145.909 44.864C143.285 43.776 140.629 42.72 137.941 41.696C135.253 40.608 132.981 39.136 131.125 37.28C129.269 35.36 128.341 33.152 128.341 30.656C128.341 28.16 128.917 26.144 130.069 24.608C131.221 23.008 132.757 21.888 134.677 21.248C137.941 20.16 141.205 19.616 144.469 19.616C149.973 19.616 154.261 20.64 157.333 22.688L156.853 23.36ZM178.441 20.768V20H180.457V10.4H187.177V20H201.865V20.768H187.177V55.712C187.177 59.872 187.625 62.88 188.521 64.736C189.481 66.592 191.433 67.52 194.377 67.52C197.385 67.52 200.425 66.912 203.497 65.696L203.785 66.464C200.585 67.68 196.905 68.288 192.745 68.288C188.649 68.288 185.577 67.456 183.529 65.792C181.481 64.064 180.457 60.672 180.457 55.616V20.768H178.441ZM238.554 68.384C231.834 68.384 226.362 66.464 222.138 62.624C217.914 58.784 215.802 52.864 215.802 44.864C215.802 36.864 217.978 30.656 222.33 26.24C226.746 21.824 232.314 19.616 239.034 19.616C245.818 19.616 251.322 21.536 255.546 25.376C259.77 29.216 261.882 35.136 261.882 43.136C261.882 51.136 259.674 57.344 255.258 61.76C250.906 66.176 245.338 68.384 238.554 68.384ZM239.226 20.384C234.362 20.384 230.33 22.56 227.13 26.912C223.93 31.2 222.33 37.216 222.33 44.96C222.33 52.64 223.802 58.336 226.746 62.048C229.69 65.76 233.594 67.616 238.458 67.616C243.322 67.616 247.354 65.472 250.554 61.184C253.754 56.832 255.354 50.816 255.354 43.136C255.354 35.392 253.882 29.664 250.938 25.952C247.994 22.24 244.09 20.384 239.226 20.384ZM335.134 31.04C335.134 27.136 334.622 24.384 333.598 22.784C332.574 21.184 330.622 20.384 327.742 20.384C323.902 20.384 320.478 21.984 317.47 25.184C314.526 28.384 313.054 31.264 313.054 33.824V68H306.334V31.04C306.334 27.136 305.822 24.384 304.798 22.784C303.774 21.184 301.598 20.384 298.27 20.384C294.942 20.384 291.774 21.92 288.766 24.992C285.822 28.064 284.222 30.912 283.966 33.536V68H277.246V20H283.966V30.848C284.99 28.096 286.878 25.536 289.63 23.168C292.382 20.8 295.454 19.616 298.846 19.616C302.238 19.616 304.926 19.936 306.91 20.576C308.958 21.152 310.398 22.08 311.23 23.36C312.062 24.64 312.574 25.76 312.766 26.72C312.958 27.68 313.054 29.024 313.054 30.752C314.078 28 315.934 25.472 318.622 23.168C321.31 20.8 324.19 19.616 327.262 19.616C330.334 19.616 332.798 19.872 334.654 20.384C336.51 20.896 337.886 21.472 338.782 22.112C339.742 22.752 340.446 23.68 340.894 24.896C341.406 26.112 341.694 27.104 341.758 27.872C341.822 28.64 341.854 29.728 341.854 31.136V61.184C341.854 63.04 342.206 64.48 342.91 65.504C343.678 66.464 344.446 66.976 345.214 67.04L346.27 67.232H349.246V68H343.39C340.766 68 338.75 67.424 337.342 66.272C335.998 65.12 335.294 63.968 335.23 62.816L335.134 61.184V31.04ZM39.2 143H2.72V75.8H10.688V142.04H39.2V143ZM64.4195 143C61.7955 143 59.7795 142.424 58.3715 141.272C57.0275 140.12 56.3235 138.968 56.2595 137.816L56.1635 136.184V95H62.8835V136.184C62.8835 138.04 63.2355 139.48 63.9395 140.504C64.7075 141.464 65.4435 141.976 66.1475 142.04L67.2995 142.232H70.2755V143H64.4195ZM56.7395 84.248C55.9715 83.48 55.5875 82.52 55.5875 81.368C55.5875 80.216 55.9715 79.256 56.7395 78.488C57.5075 77.656 58.4675 77.24 59.6195 77.24C60.7715 77.24 61.7315 77.656 62.4995 78.488C63.3315 79.256 63.7475 80.216 63.7475 81.368C63.7475 82.52 63.3315 83.48 62.4995 84.248C61.7315 85.016 60.7715 85.4 59.6195 85.4C58.4675 85.4 57.5075 85.016 56.7395 84.248ZM125.536 143C122.912 143 120.896 142.424 119.488 141.272C118.144 140.12 117.44 138.968 117.376 137.816L117.28 136.184V106.04C117.28 100.984 115.968 97.752 113.344 96.344C112 95.704 110.336 95.384 108.352 95.384C104.256 95.384 100.576 97.016 97.3122 100.28C94.0482 103.48 92.4162 106.36 92.4162 108.92V143H85.6962V95H92.4162V105.944C93.5042 103.192 95.5202 100.632 98.4642 98.264C101.408 95.832 104.64 94.616 108.16 94.616C111.68 94.616 114.528 94.968 116.704 95.672C118.944 96.312 120.576 97.24 121.6 98.456C123.2 100.44 124 103 124 106.136V136.184C124 138.04 124.352 139.48 125.056 140.504C125.824 141.464 126.592 141.976 127.36 142.04L128.416 142.232H131.392V143H125.536ZM151.418 119.576C151.418 127.512 152.794 133.336 155.546 137.048C158.362 140.76 162.042 142.616 166.586 142.616C172.986 142.616 178.682 141.656 183.674 139.736L183.962 140.408C178.842 142.392 173.05 143.384 166.586 143.384C160.186 143.384 154.97 141.464 150.938 137.624C146.906 133.784 144.89 127.864 144.89 119.864C144.89 111.864 147.002 105.656 151.226 101.24C155.45 96.824 160.826 94.616 167.354 94.616C172.602 94.616 177.018 96.184 180.602 99.32C184.186 102.456 185.978 107.096 185.978 113.24C185.978 113.56 185.978 113.88 185.978 114.2H151.706C151.514 115.928 151.418 117.72 151.418 119.576ZM179.45 113.432C179.386 107.288 178.202 102.744 175.898 99.8C173.594 96.856 170.618 95.384 166.97 95.384C163.322 95.384 160.058 96.984 157.178 100.184C154.362 103.384 152.57 107.8 151.802 113.432H179.45ZM239.33 143C236.706 143 234.69 142.424 233.282 141.272C231.938 140.12 231.234 138.968 231.17 137.816L231.074 136.184V106.04C231.074 100.984 229.762 97.752 227.138 96.344C225.794 95.704 224.13 95.384 222.146 95.384C218.05 95.384 214.37 97.016 211.106 100.28C207.842 103.48 206.21 106.36 206.21 108.92V143H199.49V95H206.21V105.944C207.298 103.192 209.314 100.632 212.258 98.264C215.202 95.832 218.434 94.616 221.954 94.616C225.474 94.616 228.322 94.968 230.498 95.672C232.738 96.312 234.37 97.24 235.394 98.456C236.994 100.44 237.794 103 237.794 106.136V136.184C237.794 138.04 238.146 139.48 238.85 140.504C239.618 141.464 240.386 141.976 241.154 142.04L242.21 142.232H245.186V143H239.33Z" fill="black"/>
</svg>
