<svg width="245" height="58" viewBox="0 0 245 58" fill="none" xmlns="http://www.w3.org/2000/svg">
<path d="M22.7284 47.9785C30.8218 47.9785 34.3761 42.9255 34.3761 38.0438C34.3761 32.0058 29.1946 29.6078 26.0257 28.3231L23.9274 27.4667C20.9727 26.2676 17.5041 24.726 17.5041 21.3859C17.5041 18.8166 19.3455 16.4613 22.9425 16.4613C26.9678 16.4613 29.9226 19.4589 31.7211 21.7713L32.7488 17.7888C31.7639 17.3178 27.8243 15.7762 23.5849 15.7762C16.6048 15.7762 12.1941 19.9299 12.1941 25.454C12.1941 31.5348 17.3756 33.9328 20.1163 35.0462L22.2146 35.9026C25.1265 37.1017 29.0661 38.6433 29.0661 42.2832C29.0661 44.8953 27.2676 47.2934 23.3708 47.2934C19.4739 47.2934 14.9776 44.9381 13.0934 41.5124L11.9372 45.9231C12.7508 46.3941 18.2321 47.9785 22.7284 47.9785ZM59.2712 16.2901C60.2989 19.7158 60.9841 23.9124 60.9841 29.9075V35.0462L45.9107 16.2901H35.5905V16.4185L39.1447 20.7864V33.8472C39.1447 39.8423 38.4596 44.0389 37.4318 47.4647H41.7141C40.6863 44.0389 40.0012 39.8423 40.0012 33.8472V21.8569L61.1554 47.9785H61.8405V29.9075C61.8405 23.9124 62.5257 19.7158 63.5534 16.2901H59.2712ZM89.1715 42.1547C85.4032 45.5805 81.5063 46.6939 77.9093 46.6939H76.3248V31.6204H76.7531C81.3779 31.6204 84.6324 32.6482 85.4032 34.0185H85.4888V28.7942H85.4032C84.6324 30.0788 81.3779 30.8496 76.7531 30.8496H76.3248V17.0609H77.6095C81.2066 17.0609 85.1462 18.3455 88.4007 21.1718H88.4864L87.8868 16.2901H67.6747V47.4647H88.2294L89.2572 42.1547H89.1715ZM105.225 37.5299L109.679 47.4647H119.142L104.711 15.2623H104.54L96.2753 33.6759C93.1065 40.7416 91.8218 43.1824 89.2525 47.4647H94.3055C93.7488 44.981 93.7488 42.4116 95.5902 37.5299H105.225ZM97.0461 34.0185L100.343 26.653L104.883 36.7591H95.8899C96.2325 35.9026 96.6179 35.0034 97.0461 34.0185ZM121.453 47.4647H130.104V16.2901H121.453V47.4647ZM148.945 16.3757V16.2901H143.721C143.036 18.6881 141.323 21.2146 136.784 25.6681L130.832 31.492L148.517 49.2632H148.945V38.5576L137.041 26.6102L137.341 26.3533C142.051 21.6428 145.177 18.8594 148.945 16.3757ZM174.105 42.1547C170.337 45.5805 166.44 46.6939 162.843 46.6939H161.258V31.6204H161.687C166.311 31.6204 169.566 32.6482 170.337 34.0185H170.422V28.7942H170.337C169.566 30.0788 166.311 30.8496 161.687 30.8496H161.258V17.0609H162.543C166.14 17.0609 170.08 18.3455 173.334 21.1718H173.42L172.82 16.2901H152.608V47.4647H173.163L174.191 42.1547H174.105ZM195.469 31.492C199.708 30.2073 203.048 27.8521 203.048 23.9124C203.048 18.7737 198.595 16.2901 189.217 16.2901H177.783V47.4647H186.433V33.162H186.69C187.29 33.162 187.761 33.2905 188.403 33.9328L203.134 49.2632H203.562V39.4569L195.469 31.492ZM189.174 32.4769C188.489 32.4769 187.204 32.3912 186.433 32.2628V16.9752H188.703C192.899 16.9752 194.826 19.8871 194.826 24.3406C194.826 28.7942 192.685 32.4769 189.174 32.4769Z" fill="#222222"/>
<path d="M233.46 16.2901H228.322C228.322 18.731 226.951 21.2575 223.483 26.2248L215.09 16.2901H204.256L217.83 32.3912L215.261 35.9883C210.807 42.2832 207.938 44.8953 204.684 47.4647H213.248C212.392 44.8953 211.835 42.2832 215.946 36.4594L218.387 33.0336L232.047 49.2632H232.433V36.8876L224.04 26.91C227.808 21.6429 230.763 18.731 233.46 16.2901Z" fill="#F12307"/>
</svg>
